<?xml version="1.0" encoding="utf-8"?>
<!-- Generator: Adobe Illustrator 16.0.3, SVG Export Plug-In . SVG Version: 6.00 Build 0)  -->
<!DOCTYPE svg PUBLIC "-//W3C//DTD SVG 1.1//EN" "http://www.w3.org/Graphics/SVG/1.1/DTD/svg11.dtd">
<svg version="1.1" id="Capa_1" xmlns="http://www.w3.org/2000/svg" xmlns:xlink="http://www.w3.org/1999/xlink" x="0px" y="0px"
	 width="200px" height="60px" viewBox="0 0 200 60" enable-background="new 0 0 200 60" xml:space="preserve">
<g>
	<path fill="#222222" d="M18.828,9.652v26.057h19.097v7.68H18.828v14.708h-7.68V2.007h32.434v7.646H18.828z"/>
	<path fill="#222222" d="M55.342,58.097h-7.646V2.007h7.646V58.097z"/>
	<path fill="#222222" d="M59.456,58.097V2.007h14.64c4.388,0,8.137,1.554,11.245,4.663c3.108,3.109,4.663,6.857,4.663,11.246
		c0,4.206-1.452,7.829-4.354,10.868c2.24,1.463,4,3.359,5.28,5.691c1.326,2.377,1.989,4.949,1.989,7.714
		c0,4.389-1.555,8.138-4.663,11.245c-3.108,3.109-6.857,4.663-11.245,4.663H59.456z M67.033,26.246h6.892
		c2.354,0,4.354-0.811,6-2.434c1.668-1.646,2.503-3.611,2.503-5.897c0-2.309-0.812-4.274-2.434-5.897
		c-1.646-1.622-3.612-2.434-5.897-2.434h-7.063V26.246z M67.033,50.52h9.977c2.285,0,4.251-0.811,5.897-2.435
		c1.623-1.646,2.434-3.61,2.434-5.896c0-2.308-0.812-4.286-2.434-5.931c-1.646-1.623-3.612-2.436-5.897-2.436h-9.977V50.52z"/>
	<path fill="#222222" d="M123.74,58.097l-9.943-12.514H105.5v12.514h-7.919V2.007h13.885c6.011,0,11.144,2.125,15.394,6.377
		c4.252,4.251,6.377,9.382,6.377,15.394c0,6.034-2.125,11.177-6.377,15.427c-1.485,1.463-3.131,2.709-4.937,3.738l11.897,15.153
		H123.74z M111.466,37.663c3.817,0,7.085-1.36,9.806-4.08c2.72-2.697,4.08-5.965,4.08-9.805c0-3.84-1.36-7.108-4.08-9.806
		c-2.721-2.72-5.988-4.08-9.806-4.08H105.5v27.771H111.466z"/>
	<path fill="#222222" d="M170.573,51.137h-22.696l-2.777,6.96h-8.365L159.19,1.904l22.491,56.193h-8.332L170.573,51.137z
		 M167.453,43.389l-8.263-20.605l-8.194,20.605H167.453z"/>
</g>
<g>
	<defs>
		<rect id="SVGID_1_" x="5.558" y="2.135" width="192.884" height="55.962"/>
	</defs>
	<clipPath id="SVGID_2_">
		<use xlink:href="#SVGID_1_"  overflow="visible"/>
	</clipPath>
	
		<line clip-path="url(#SVGID_2_)" fill="#222222" stroke="#101011" stroke-width="4" stroke-linecap="round" stroke-linejoin="bevel" stroke-miterlimit="10" x1="147.598" y1="-40.049" x2="187.845" y2="57.756"/>
</g>
</svg>
