<?xml version="1.0" encoding="utf-8"?>
<!-- Generator: Adobe Illustrator 16.0.3, SVG Export Plug-In . SVG Version: 6.00 Build 0)  -->
<!DOCTYPE svg PUBLIC "-//W3C//DTD SVG 1.1//EN" "http://www.w3.org/Graphics/SVG/1.1/DTD/svg11.dtd">
<svg version="1.1" id="Capa_1" xmlns="http://www.w3.org/2000/svg" xmlns:xlink="http://www.w3.org/1999/xlink" x="0px" y="0px"
	 width="200px" height="60px" viewBox="0 0 200 60" enable-background="new 0 0 200 60" xml:space="preserve">
<g>
	<path fill="#FFFFFF" d="M40.7,54.21h-2.67v-5.935c-0.515,0.692-1.079,1.355-1.691,1.988c-3.186,3.185-7.033,4.777-11.543,4.777
		c-4.491,0-8.329-1.593-11.513-4.777c-3.186-3.185-4.778-7.022-4.778-11.514c0-4.51,1.592-8.357,4.778-11.543
		c3.185-3.185,7.022-4.777,11.513-4.777c4.51,0,8.357,1.593,11.543,4.777c0.613,0.633,1.177,1.296,1.691,1.988V6.732h2.67V54.21z
		 M38.029,41.391v-5.281c-0.495-2.611-1.731-4.906-3.709-6.884c-2.631-2.631-5.806-3.947-9.525-3.947
		c-3.72,0-6.895,1.316-9.525,3.947c-2.631,2.631-3.946,5.806-3.946,9.525c0,3.72,1.315,6.89,3.946,9.511s5.806,3.932,9.525,3.932
		c3.719,0,6.894-1.315,9.525-3.946C36.298,46.268,37.534,43.982,38.029,41.391z"/>
	<path fill="#FFFFFF" d="M53.415,15.516c0.524,0.515,0.786,1.138,0.786,1.869c0,0.752-0.262,1.385-0.786,1.899
		c-0.524,0.515-1.153,0.771-1.884,0.771c-0.732,0-1.36-0.257-1.884-0.771c-0.524-0.514-0.787-1.147-0.787-1.899
		c0-0.731,0.262-1.354,0.787-1.869c0.524-0.515,1.152-0.772,1.884-0.772C52.262,14.744,52.891,15.001,53.415,15.516z M52.866,25.071
		V54.21h-2.67V25.071H52.866z"/>
	<path fill="#FFFFFF" d="M62.361,6.732h2.67v22.433c0.494-0.672,1.058-1.325,1.691-1.958c3.185-3.185,7.022-4.777,11.513-4.777
		c4.51,0,8.353,1.593,11.528,4.777c3.175,3.186,4.763,7.033,4.763,11.543c0,4.491-1.588,8.329-4.763,11.514
		c-3.175,3.185-7.018,4.777-11.528,4.777c-4.491,0-8.329-1.593-11.513-4.777c-0.633-0.633-1.197-1.286-1.691-1.959v5.905h-2.67
		V6.732z M65.032,35.961v5.578c0.514,2.533,1.741,4.768,3.68,6.707c2.63,2.631,5.806,3.946,9.525,3.946s6.894-1.311,9.525-3.932
		c2.63-2.621,3.946-5.791,3.946-9.511c0-3.719-1.316-6.894-3.946-9.525c-2.631-2.631-5.806-3.947-9.525-3.947
		s-6.895,1.316-9.525,3.947C66.772,31.164,65.546,33.409,65.032,35.961z"/>
	<path fill="#FFFFFF" d="M108.236,48.75c2.512,2.295,5.499,3.442,8.961,3.442c3.72,0,6.895-1.315,9.525-3.946
		c0.336-0.337,0.653-0.683,0.949-1.039l2.819,1.009c-0.515,0.712-1.098,1.395-1.751,2.048c-3.185,3.185-7.032,4.777-11.543,4.777
		c-4.49,0-8.328-1.593-11.513-4.777c-3.186-3.185-4.778-7.033-4.778-11.543c0-4.49,1.592-8.328,4.778-11.514
		c3.185-3.185,7.022-4.777,11.513-4.777c3.857,0,7.23,1.157,10.119,3.472c0.475,0.396,0.949,0.831,1.424,1.306
		c0.179,0.178,0.347,0.356,0.505,0.534l-2.018,2.018L108.236,48.75z M125.269,27.949c-2.314-1.781-5.005-2.671-8.071-2.671
		c-3.699,0-6.864,1.311-9.495,3.932c-2.631,2.622-3.946,5.792-3.946,9.511c0,3.066,0.891,5.757,2.67,8.071L125.269,27.949z"/>
	<path fill="#FFFFFF" d="M143.162,48.75c2.512,2.295,5.499,3.442,8.961,3.442c3.72,0,6.895-1.315,9.525-3.946
		c0.336-0.337,0.653-0.683,0.949-1.039l2.819,1.009c-0.515,0.712-1.098,1.395-1.751,2.048c-3.185,3.185-7.032,4.777-11.543,4.777
		c-4.49,0-8.328-1.593-11.513-4.777c-3.186-3.185-4.777-7.033-4.777-11.543c0-4.49,1.592-8.328,4.777-11.514
		c3.185-3.185,7.022-4.777,11.513-4.777c3.857,0,7.23,1.157,10.119,3.472c0.475,0.396,0.949,0.831,1.424,1.306
		c0.179,0.178,0.347,0.356,0.505,0.534l-2.018,2.018L143.162,48.75z M160.194,27.949c-2.314-1.781-5.005-2.671-8.071-2.671
		c-3.699,0-6.864,1.311-9.495,3.932c-2.631,2.622-3.946,5.792-3.946,9.511c0,3.066,0.89,5.757,2.67,8.071L160.194,27.949z"/>
</g>
<g>
	<g>
		<g>
			<path fill="#343432" d="M183.317,15.482c1.099,3.935,3.636,10.447,7.069,10.447c3.717,0,6.731-4.391,6.731-9.808
				s-3.015-9.808-6.731-9.808c-2.615,0-4.881,2.17-5.997,5.343c0.905-2.293,2.524-3.82,4.37-3.82c2.837,0,5.138,3.61,5.138,8.062
				s-2.301,8.06-5.138,8.06c-1.972,0-3.718-4.271-4.649-6.474C183.823,16.805,183.393,15.746,183.317,15.482z"/>
		</g>
	</g>
	<g>
		<g>
			<path fill="#343432" d="M185.319,20.709c-1.148-3.922-3.771-10.401-7.203-10.355c-3.72,0.048-6.676,4.479-6.604,9.896
				c0.069,5.417,3.142,9.769,6.858,9.719c2.614-0.034,4.854-2.235,5.927-5.422c-0.876,2.306-2.474,3.854-4.318,3.879
				c-2.84,0.037-5.187-3.543-5.244-7.994c-0.059-4.453,2.192-8.091,5.032-8.129c1.971-0.025,3.772,4.224,4.733,6.414
				C184.797,19.392,185.243,20.446,185.319,20.709z"/>
		</g>
	</g>
</g>
</svg>
