<?xml version="1.0" encoding="utf-8"?>
<!-- Generator: Adobe Illustrator 16.0.3, SVG Export Plug-In . SVG Version: 6.00 Build 0)  -->
<!DOCTYPE svg PUBLIC "-//W3C//DTD SVG 1.1//EN" "http://www.w3.org/Graphics/SVG/1.1/DTD/svg11.dtd">
<svg version="1.1" id="Capa_1" xmlns="http://www.w3.org/2000/svg" xmlns:xlink="http://www.w3.org/1999/xlink" x="0px" y="0px"
	 width="200px" height="60px" viewBox="0 0 200 60" enable-background="new 0 0 200 60" xml:space="preserve">
<text transform="matrix(1 0 0 1 4.7949 54.21)" fill="#FFFFFF" font-family="'CaviarDreams'" font-size="60.7711">dibee</text>
<g>
	<g>
		<g>
			<path fill="#343432" d="M183.317,15.482c1.099,3.935,3.636,10.447,7.069,10.447c3.717,0,6.731-4.391,6.731-9.808
				s-3.015-9.808-6.731-9.808c-2.615,0-4.881,2.17-5.997,5.343c0.905-2.293,2.524-3.82,4.37-3.82c2.837,0,5.138,3.61,5.138,8.062
				s-2.301,8.06-5.138,8.06c-1.972,0-3.718-4.271-4.649-6.474C183.823,16.805,183.393,15.746,183.317,15.482z"/>
		</g>
	</g>
	<g>
		<g>
			<path fill="#343432" d="M185.319,20.709c-1.148-3.922-3.771-10.401-7.203-10.355c-3.72,0.048-6.676,4.479-6.604,9.896
				c0.069,5.417,3.142,9.769,6.858,9.719c2.614-0.034,4.854-2.235,5.927-5.422c-0.876,2.306-2.474,3.854-4.318,3.879
				c-2.84,0.037-5.187-3.543-5.244-7.994c-0.059-4.453,2.192-8.091,5.032-8.129c1.971-0.025,3.772,4.224,4.733,6.414
				C184.797,19.392,185.243,20.446,185.319,20.709z"/>
		</g>
	</g>
</g>
</svg>
